<?xml version="1.0" ?><!DOCTYPE svg  PUBLIC '-//W3C//DTD SVG 1.1//EN'  'http://www.w3.org/Graphics/SVG/1.1/DTD/svg11.dtd'><svg enable-background="new 0 0 256 256" height="256px" id="Layer_1" version="1.1" viewBox="0 0 256 256" width="256px" xml:space="preserve" xmlns="http://www.w3.org/2000/svg" xmlns:xlink="http://www.w3.org/1999/xlink"><path d="M0,97.25h64v64H0V97.25z M23.597,129.014h3.732v18.408h7.6v-18.408h5.166l0.706-6.395h-5.871v-2.89  c0-1.001,0.148-1.707,0.444-2.116s0.929-0.614,1.9-0.614h3.436v-6.349h-5.78c-1.29,0-2.488,0.22-3.595,0.66  c-2.67,1.078-4.004,3.581-4.004,7.509v3.8h-3.732V129.014z" fill="#2D4078"/><path d="M64,97.25h192v64H64V97.25z M77.658,140.633c2.598,0,4.577-1.462,4.577-4.318  c0-2.227-1.698-3.823-3.216-5.488l-2.845-3.092c-0.934-1.012-1.586-1.991-1.586-3.082c0-1.743,1.158-2.575,2.8-2.575  c1.844,0,2.89,1.484,3.171,3.295l0.022,0.158l1.439-0.45l-0.034-0.18c-0.506-2.71-2.047-4.195-4.6-4.195  c-2.575,0-4.453,1.608-4.453,4.172c0,1.451,0.911,2.665,2.046,3.869l3.025,3.183c1.406,1.484,2.598,2.89,2.598,4.532  c0,1.776-0.99,2.8-2.755,2.8c-2.294,0-3.216-2.002-3.452-4.037l-1.507,0.438C73.294,138.327,74.824,140.633,77.658,140.633z   M86.433,140.329v-9.401h5.96v9.401h1.709v-19.354h-1.709v8.76h-5.96v-8.76h-1.709v19.354H86.433z M99.033,135.291h4.465  l0.967,5.038h1.732l-3.824-19.354h-2.227c-1.811,8.986-2.013,10.38-3.823,19.354h1.72L99.033,135.291z M101.249,122.752  l2.036,11.403h-4.048L101.249,122.752z M110.125,140.329v-9.446h3.25l2.823,9.446h1.822l-2.991-9.66  c2.125-0.776,2.699-2.71,2.699-4.689c0-2.688-0.787-5.004-4.149-5.004h-5.162v19.354H110.125z M110.125,122.347h3.441  c2.001,0,2.452,1.653,2.452,3.576c0,1.811-0.405,3.587-2.452,3.587h-3.441V122.347z M127.19,140.329v-1.372h-5.038v-7.984h3.599  v-1.293h-3.599v-7.333h5.038v-1.372h-6.747v19.354H127.19z M137.912,140.633c3.846,0,4.937-2.665,4.937-5.915v-8.108  c0-3.272-1.181-5.904-4.937-5.904s-4.938,2.632-4.938,5.904v8.108C132.975,137.968,134.065,140.633,137.912,140.633z   M137.912,139.261c-2.52,0-3.228-1.867-3.228-4.161v-8.873c0-2.294,0.708-4.15,3.228-4.15c2.519,0,3.228,1.855,3.228,4.15v8.873  C141.14,137.394,140.431,139.261,137.912,139.261z M147.307,140.329v-15.002l6.14,15.002h1.282v-19.354h-1.45v15.328l-6.129-15.328  h-1.316v19.354H147.307z M163.484,140.329v-9.356h3.599v-1.293h-3.599v-7.333h5.038v-1.372h-6.748v19.354H163.484z M171.382,135.291  h4.464l0.968,5.038h1.731l-3.823-19.354h-2.227c-1.811,8.986-2.014,10.38-3.824,19.354h1.721L171.382,135.291z M173.597,122.752  l2.035,11.403h-4.048L173.597,122.752z M185.229,140.633c3.576,0,4.543-2.665,4.543-5.915v-0.945h-1.631v1.327  c0,2.362-0.663,4.161-2.912,4.161c-2.52,0-3.205-1.799-3.205-4.161v-8.873c0-2.362,0.686-4.15,3.205-4.15  c2.249,0,2.912,1.788,2.912,4.15v1.169h1.631v-0.787c0-3.272-1.057-5.904-4.543-5.904c-3.757,0-4.915,2.632-4.915,5.904v8.108  C180.314,137.968,181.383,140.633,185.229,140.633z M199.448,140.329v-1.372h-5.038v-7.984h3.599v-1.293h-3.599v-7.333h5.038v-1.372  H192.7v19.354H199.448z M206.278,140.329c3.778,0,4.431-2.699,4.431-5.77c0-1.642-0.563-3.946-2.485-4.723  c1.383-0.63,2.092-2.474,2.092-3.947c0-2.429-0.923-4.915-4.375-4.915h-4.161v19.354H206.278z M203.489,122.28h2.227  c2.147,0,2.767,1.653,2.767,3.644c0,1.732-0.518,3.363-2.25,3.363h-2.743V122.28z M203.489,130.602h3.059  c2.047,0,2.451,1.855,2.451,3.958c0,2.385-0.438,4.465-2.451,4.465h-3.059V130.602z M218.001,140.633  c3.846,0,4.937-2.665,4.937-5.915v-8.108c0-3.272-1.181-5.904-4.937-5.904c-3.757,0-4.938,2.632-4.938,5.904v8.108  C213.063,137.968,214.154,140.633,218.001,140.633z M218.001,139.261c-2.52,0-3.228-1.867-3.228-4.161v-8.873  c0-2.294,0.708-4.15,3.228-4.15c2.519,0,3.228,1.855,3.228,4.15v8.873C221.229,137.394,220.52,139.261,218.001,139.261z   M230.556,140.633c3.846,0,4.937-2.665,4.937-5.915v-8.108c0-3.272-1.181-5.904-4.937-5.904c-3.757,0-4.938,2.632-4.938,5.904v8.108  C225.618,137.968,226.709,140.633,230.556,140.633z M230.556,139.261c-2.52,0-3.228-1.867-3.228-4.161v-8.873  c0-2.294,0.708-4.15,3.228-4.15c2.519,0,3.228,1.855,3.228,4.15v8.873C233.783,137.394,233.074,139.261,230.556,139.261z   M240.187,140.329v-6.826l1.889-3.396l4.139,10.223h1.811l-4.914-11.37l4.003-7.984h-1.766l-5.161,10.177v-10.177h-1.71v19.354  H240.187z" fill="#0A70B0"/></svg>